<?xml version="1.0" standalone="no"?>
<!DOCTYPE svg PUBLIC "-//W3C//DTD SVG 20010904//EN"
 "http://www.w3.org/TR/2001/REC-SVG-20010904/DTD/svg10.dtd">
<svg version="1.0" xmlns="http://www.w3.org/2000/svg"
 width="93.000000pt" height="156.000000pt" viewBox="0 0 93.000000 156.000000"
 preserveAspectRatio="xMidYMid meet">

<g transform="translate(0.000000,156.000000) scale(0.100000,-0.100000)"
fill="#000000" stroke="none">
<path d="M220 1553 c0 -5 -7 -44 -15 -88 -7 -44 -32 -246 -55 -450 -22 -203
-49 -424 -59 -490 -12 -74 -15 -124 -9 -130 5 -6 64 -10 136 -10 128 0 206 10
198 24 -8 12 -44 293 -81 625 -20 176 -43 366 -51 423 -16 97 -18 103 -40 103
-13 0 -24 -3 -24 -7z"/>
<path d="M307 1488 c7 -40 31 -235 53 -433 22 -198 49 -422 60 -498 11 -76 20
-140 20 -143 0 -7 34 -4 47 4 16 10 34 132 73 487 17 154 40 347 51 428 11 81
17 152 14 157 -14 23 -211 69 -301 70 l-31 0 14 -72z"/>
<path d="M120 1522 c-28 -24 -33 -38 -50 -137 -40 -241 -75 -670 -69 -843 3
-71 8 -94 23 -111 11 -12 21 -20 22 -18 5 5 42 291 69 537 29 271 63 545 72
578 8 32 -28 29 -67 -6z"/>
<path d="M655 1458 c-6 -18 -29 -215 -60 -503 -14 -132 -35 -303 -45 -379 -11
-77 -18 -141 -16 -143 2 -3 35 11 73 31 75 37 170 117 202 169 l19 32 -33 303
c-49 435 -49 439 -77 462 -39 34 -58 42 -63 28z"/>
<path d="M780 1348 c0 -7 5 -42 10 -78 5 -36 21 -175 35 -310 14 -134 27 -246
29 -247 7 -8 47 101 57 155 14 72 5 186 -22 282 -27 98 -110 248 -109 198z"/>
<path d="M42 144 l3 -129 55 3 c74 4 112 27 128 80 12 35 12 49 0 84 -18 57
-54 81 -128 86 l-61 4 3 -128z m118 81 c32 -16 44 -43 42 -95 -2 -43 -34 -76
-84 -85 l-38 -7 0 101 0 101 25 0 c15 0 39 -7 55 -15z"/>
<path d="M286 240 c-12 -70 -36 -215 -36 -222 0 -5 7 -8 15 -8 16 0 19 10 33
105 l9 60 40 -85 41 -85 37 83 c21 45 40 81 42 79 2 -3 9 -37 16 -77 6 -41 18
-75 25 -78 16 -5 15 28 -7 158 l-18 105 -48 -100 -47 -100 -48 100 c-47 99
-47 100 -54 65z"/>
<path d="M662 253 c-20 -36 -102 -226 -102 -234 0 -5 6 -9 13 -9 8 0 21 18 30
40 15 40 16 40 69 40 52 0 53 -1 70 -40 9 -23 23 -40 32 -40 18 0 22 -11 -54
160 -24 52 -44 97 -46 98 -1 2 -7 -5 -12 -15z m18 -57 c0 -2 7 -20 15 -40 l15
-36 -39 0 -40 0 17 40 c9 22 20 40 25 40 4 0 7 -2 7 -4z"/>
<path d="M822 143 c2 -90 7 -128 16 -131 9 -3 12 27 12 127 0 111 -2 131 -15
131 -13 0 -15 -18 -13 -127z"/>
</g>
</svg>
