<?xml version="1.0" encoding="UTF-8"?>
<!DOCTYPE svg PUBLIC "-//W3C//DTD SVG 1.1//EN" "http://www.w3.org/Graphics/SVG/1.1/DTD/svg11.dtd">
<svg xmlns="http://www.w3.org/2000/svg" version="1.1" width="93px" height="156px" style="shape-rendering:geometricPrecision; text-rendering:geometricPrecision; image-rendering:optimizeQuality; fill-rule:evenodd; clip-rule:evenodd" xmlns:xlink="http://www.w3.org/1999/xlink">
<g><path style="opacity:0.951" fill="#dc0715" d="M 15.5,-0.5 C 16.8333,-0.5 18.1667,-0.5 19.5,-0.5C 14.5367,37.1264 9.70337,74.7931 5,112.5C 4.66667,113.5 4.33333,114.5 4,115.5C 2.26401,113.937 0.764005,112.27 -0.5,110.5C -0.5,96.8333 -0.5,83.1667 -0.5,69.5C 1.14579,49.8759 3.64579,30.2092 7,10.5C 7.84331,5.17164 10.6766,1.50498 15.5,-0.5 Z"/></g>
<g><path style="opacity:0.969" fill="#dc0715" d="M 21.5,-0.5 C 23.1667,-0.5 24.8333,-0.5 26.5,-0.5C 31.8634,38.4349 36.8634,77.4349 41.5,116.5C 30.5221,117.547 19.5221,117.713 8.5,117C 7.37586,116.161 6.70919,114.994 6.5,113.5C 10.8814,81.5672 14.7148,49.5672 18,17.5C 18.7256,11.373 19.8923,5.37301 21.5,-0.5 Z"/></g>
<g><path style="opacity:0.974" fill="#dc0715" d="M 28.5,-0.5 C 33.5,-0.5 38.5,-0.5 43.5,-0.5C 50.1382,1.26524 56.8048,3.26524 63.5,5.5C 59.0377,41.4922 54.5377,77.4922 50,113.5C 47.4318,115.636 45.0985,115.636 43,113.5C 41.8917,107.184 40.8917,100.85 40,94.5C 36.6925,62.7556 32.8592,31.0889 28.5,-0.5 Z"/></g>
<g><path style="opacity:0.971" fill="#dc0715" d="M 64.5,7.5 C 68.0317,8.85391 71.1984,10.8539 74,13.5C 77.842,39.4087 80.5086,65.4087 82,91.5C 74.4408,101.865 64.6074,109.198 52.5,113.5C 56.2646,78.2876 60.2646,42.9542 64.5,7.5 Z"/></g>
<g><path style="opacity:0.941" fill="#dc0715" d="M 92.5,58.5 C 92.5,59.8333 92.5,61.1667 92.5,62.5C 91.6019,70.0702 89.4352,77.4036 86,84.5C 85.3333,85.8333 84.6667,85.8333 84,84.5C 81.596,62.1245 79.2627,39.7912 77,17.5C 86.6254,29.5507 91.7921,43.2174 92.5,58.5 Z"/></g>
<g><path style="opacity:0.861" fill="#dc0715" d="M 65.5,127.5 C 68.0275,129.51 69.8608,132.177 71,135.5C 73.9996,141.671 76.4996,148.004 78.5,154.5C 77.1266,154.657 75.7932,154.49 74.5,154C 72.8166,147.377 68.4833,144.877 61.5,146.5C 61.2447,149.016 60.4114,151.35 59,153.5C 57.5064,154.747 56.0064,154.747 54.5,153.5C 58.1791,144.812 61.8458,136.145 65.5,127.5 Z M 66.5,136.5 C 67.4805,138.396 68.4805,140.396 69.5,142.5C 67.5787,143.641 65.5787,143.808 63.5,143C 64.4059,140.779 65.4059,138.612 66.5,136.5 Z"/></g>
<g><path style="opacity:0.936" fill="#252525" d="M 3.5,128.5 C 21.074,126.677 26.9074,134.01 21,150.5C 15.7636,154.063 9.93028,155.396 3.5,154.5C 3.5,145.833 3.5,137.167 3.5,128.5 Z M 7.5,131.5 C 18.499,132.32 21.8323,137.82 17.5,148C 14.4642,150.006 11.1309,150.84 7.5,150.5C 7.5,144.167 7.5,137.833 7.5,131.5 Z"/></g>
<g><path style="opacity:0.937" fill="#dc0715" d="M 81.5,127.5 C 82.8221,127.33 83.9887,127.663 85,128.5C 85.4998,137.16 85.6664,145.827 85.5,154.5C 84.1667,154.5 82.8333,154.5 81.5,154.5C 81.5,145.5 81.5,136.5 81.5,127.5 Z"/></g>
<g><path style="opacity:0.94" fill="#252525" d="M 38.5,155.5 C 38.1667,155.5 37.8333,155.5 37.5,155.5C 35.3456,150.521 33.1789,145.521 31,140.5C 29.3848,144.955 28.5515,149.622 28.5,154.5C 27.1667,154.5 25.8333,154.5 24.5,154.5C 25.2111,145.02 26.7111,135.687 29,126.5C 32,133.167 35,139.833 38,146.5C 41.3333,139.833 44.6667,133.167 48,126.5C 49.734,135.806 51.234,145.139 52.5,154.5C 50.549,154.773 49.049,154.107 48,152.5C 47.4265,148.152 46.7599,143.819 46,139.5C 43.7593,144.98 41.2593,150.313 38.5,155.5 Z"/></g>
</svg>
